<svg width="156" height="25" viewBox="0 0 156 25" fill="none" xmlns="http://www.w3.org/2000/svg">
<path d="M1.84577 17.4603C1.60305 17.4603 1.41031 17.3889 1.26753 17.2461C1.12476 17.089 1.05337 16.8749 1.05337 16.6036V4.82479C1.05337 4.02525 1.28895 3.39705 1.7601 2.94017C2.24553 2.4833 2.91657 2.25486 3.77321 2.25486H7.41394C11.483 2.25486 13.5175 3.96101 13.5175 7.3733C13.5175 8.94381 12.9964 10.1574 11.9541 11.014C10.9262 11.8564 9.44132 12.2776 7.4996 12.2776H2.65958V16.6036C2.65958 16.8749 2.58819 17.089 2.44541 17.2461C2.30264 17.3889 2.10276 17.4603 1.84577 17.4603ZM7.4996 10.9284C8.88451 10.9284 9.95531 10.6571 10.712 10.1146C11.483 9.57201 11.8685 8.65826 11.8685 7.3733C11.8685 6.03122 11.4973 5.0675 10.7548 4.48213C10.0124 3.88248 8.93448 3.58266 7.52102 3.58266H3.79463C3.45197 3.58266 3.17356 3.69687 2.9594 3.92531C2.75952 4.15375 2.65958 4.45358 2.65958 4.82479V10.9284H7.4996ZM20.5805 17.4603C19.1813 17.4603 18.0819 17.0605 17.2824 16.261C16.4971 15.4614 16.1045 14.3478 16.1045 12.9201V7.39471C16.1045 7.12344 16.1759 6.91642 16.3187 6.77365C16.4614 6.6166 16.6542 6.53807 16.8969 6.53807C17.1396 6.53807 17.3252 6.6166 17.4537 6.77365C17.5965 6.91642 17.6679 7.12344 17.6679 7.39471V12.9201C17.6679 13.9337 17.9391 14.719 18.4817 15.2758C19.0242 15.8326 19.7809 16.111 20.7518 16.111C21.5228 16.111 22.2081 15.9397 22.8077 15.5971C23.4074 15.2544 23.8714 14.7761 24.1998 14.1622C24.5424 13.5483 24.7138 12.8415 24.7138 12.042V7.39471C24.7138 7.12344 24.778 6.91642 24.9065 6.77365C25.0493 6.6166 25.2492 6.53807 25.5061 6.53807C25.7489 6.53807 25.9345 6.6166 26.063 6.77365C26.2057 6.91642 26.2771 7.12344 26.2771 7.39471V16.6036C26.2771 16.8749 26.2057 17.089 26.063 17.2461C25.9345 17.3889 25.7489 17.4603 25.5061 17.4603C25.2492 17.4603 25.0493 17.3817 24.9065 17.2247C24.778 17.0676 24.7138 16.8606 24.7138 16.6036V15.3401C24.1855 16.0254 23.5716 16.5536 22.872 16.9249C22.1724 17.2818 21.4085 17.4603 20.5805 17.4603ZM34.4222 17.4603C32.6519 17.4603 31.2527 16.982 30.2247 16.0254C29.211 15.0545 28.7042 13.7339 28.7042 12.0634C28.7042 11.0069 28.9255 10.0646 29.3681 9.23649C29.8249 8.39413 30.4817 7.73737 31.3383 7.26622C32.2093 6.78079 33.2515 6.53807 34.4651 6.53807C35.4931 6.53807 36.364 6.73081 37.0778 7.1163C37.806 7.50179 38.4485 8.03719 39.0053 8.72251L39.0267 1.84796C39.0267 1.57669 39.0909 1.36966 39.2194 1.22689C39.3622 1.06984 39.5621 0.991313 39.8191 0.991313C40.0618 0.991313 40.2474 1.06984 40.3759 1.22689C40.5187 1.36966 40.5901 1.57669 40.5901 1.84796V16.6036C40.5901 16.8749 40.5187 17.089 40.3759 17.2461C40.2474 17.3889 40.0618 17.4603 39.8191 17.4603C39.5764 17.4603 39.3836 17.3889 39.2409 17.2461C39.0981 17.089 39.0267 16.8749 39.0267 16.6036V15.233C38.527 15.9611 37.8845 16.5179 37.0993 16.9034C36.3283 17.2746 35.4359 17.4603 34.4222 17.4603ZM34.5507 16.111C35.9357 16.111 37.0279 15.747 37.8274 15.0188C38.6269 14.2764 39.0267 13.2698 39.0267 11.9992C39.0267 11.1568 38.8197 10.4287 38.4056 9.81473C38.0059 9.18652 37.4633 8.70823 36.778 8.37985C36.107 8.05147 35.3717 7.88728 34.5722 7.88728C33.2301 7.88728 32.1807 8.27277 31.424 9.04375C30.6673 9.80045 30.289 10.807 30.289 12.0634C30.289 13.4055 30.6602 14.4192 31.4026 15.1045C32.145 15.7755 33.1944 16.111 34.5507 16.111ZM48.7066 17.4603C46.9362 17.4603 45.537 16.982 44.509 16.0254C43.4953 15.0545 42.9885 13.7339 42.9885 12.0634C42.9885 11.0069 43.2098 10.0646 43.6524 9.23649C44.1093 8.39413 44.766 7.73737 45.6227 7.26622C46.4936 6.78079 47.5358 6.53807 48.7494 6.53807C49.7774 6.53807 50.6483 6.73081 51.3622 7.1163C52.0903 7.50179 52.7328 8.03719 53.2896 8.72251L53.311 1.84796C53.311 1.57669 53.3753 1.36966 53.5038 1.22689C53.6466 1.06984 53.8464 0.991313 54.1034 0.991313C54.3461 0.991313 54.5318 1.06984 54.6602 1.22689C54.803 1.36966 54.8744 1.57669 54.8744 1.84796V16.6036C54.8744 16.8749 54.803 17.089 54.6602 17.2461C54.5318 17.3889 54.3461 17.4603 54.1034 17.4603C53.8607 17.4603 53.668 17.3889 53.5252 17.2461C53.3824 17.089 53.311 16.8749 53.311 16.6036V15.233C52.8113 15.9611 52.1688 16.5179 51.3836 16.9034C50.6126 17.2746 49.7203 17.4603 48.7066 17.4603ZM48.8351 16.111C50.22 16.111 51.3122 15.747 52.1117 15.0188C52.9113 14.2764 53.311 13.2698 53.311 11.9992C53.311 11.1568 53.104 10.4287 52.69 9.81473C52.2902 9.18652 51.7477 8.70823 51.0624 8.37985C50.3913 8.05147 49.656 7.88728 48.8565 7.88728C47.5144 7.88728 46.465 8.27277 45.7083 9.04375C44.9516 9.80045 44.5733 10.807 44.5733 12.0634C44.5733 13.4055 44.9445 14.4192 45.6869 15.1045C46.4293 15.7755 47.4787 16.111 48.8351 16.111ZM59.0718 17.4603C58.8291 17.4603 58.6363 17.3889 58.4935 17.2461C58.3651 17.089 58.3008 16.8749 58.3008 16.6036V1.84796C58.3008 1.57669 58.3651 1.36966 58.4935 1.22689C58.6363 1.06984 58.8291 0.991313 59.0718 0.991313C59.3145 0.991313 59.5072 1.06984 59.65 1.22689C59.7928 1.36966 59.8642 1.57669 59.8642 1.84796V16.6036C59.8642 16.8606 59.7928 17.0676 59.65 17.2247C59.5215 17.3817 59.3288 17.4603 59.0718 17.4603ZM68.5566 17.4603C66.7005 17.4603 65.2657 16.982 64.252 16.0254C63.2383 15.0688 62.7314 13.7124 62.7314 11.9563C62.7314 10.2716 63.2454 8.95094 64.2734 7.99436C65.3013 7.0235 66.7077 6.53807 68.4923 6.53807C69.5917 6.53807 70.5697 6.71654 71.4263 7.07347C72.283 7.41613 72.9469 7.9087 73.418 8.55118C73.9035 9.17938 74.1462 9.90039 74.1462 10.7142C74.1462 11.3138 73.9748 11.7779 73.6322 12.1062C73.3038 12.4346 72.8469 12.5988 72.2616 12.5988H64.3376C64.3376 13.6982 64.7088 14.5619 65.4513 15.1902C66.1937 15.8041 67.2288 16.111 68.5566 16.111C69.3704 16.111 70.07 16.0254 70.6554 15.8541C71.2407 15.6684 71.7904 15.3758 72.3044 14.976C72.5757 14.7476 72.797 14.6333 72.9683 14.6333C73.0968 14.6333 73.2181 14.6904 73.3324 14.8047C73.5322 14.976 73.6322 15.1545 73.6322 15.3401C73.6322 15.4828 73.5465 15.6399 73.3752 15.8112C72.7898 16.368 72.1045 16.7821 71.3193 17.0533C70.534 17.3246 69.6131 17.4603 68.5566 17.4603ZM71.7904 11.3353C72.0474 11.3353 72.2401 11.2853 72.3686 11.1854C72.4971 11.0711 72.5614 10.8713 72.5614 10.5857C72.5614 10.0717 72.3901 9.6077 72.0474 9.19366C71.7047 8.77962 71.2193 8.45838 70.5911 8.22994C69.9772 8.0015 69.2776 7.88728 68.4923 7.88728C67.2216 7.88728 66.2151 8.20138 65.4727 8.82959C64.7445 9.44351 64.3805 10.2787 64.3805 11.3353H71.7904ZM81.4092 17.4603C79.1677 17.4603 77.433 16.6464 76.2051 15.0188C76.0766 14.8618 76.0124 14.7047 76.0124 14.5477C76.0124 14.3335 76.1123 14.1479 76.3122 13.9909C76.4407 13.8766 76.5977 13.8195 76.7834 13.8195C77.0546 13.8195 77.2759 13.9337 77.4472 14.1622C77.9327 14.8332 78.4824 15.3186 79.0963 15.6185C79.7245 15.9183 80.4955 16.0682 81.4092 16.0682C82.4372 16.0682 83.2296 15.7684 83.7864 15.1687C84.3575 14.5548 84.643 13.6982 84.643 12.5988V2.89734C84.643 2.62607 84.7073 2.41905 84.8358 2.27628C84.9786 2.11923 85.1784 2.0407 85.4354 2.0407C85.6924 2.0407 85.8923 2.11923 86.0351 2.27628C86.1921 2.41905 86.2707 2.62607 86.2707 2.89734V12.5131C86.2707 13.484 86.0636 14.3478 85.6496 15.1045C85.2356 15.8469 84.6573 16.4251 83.9149 16.8392C83.1868 17.2532 82.3515 17.4603 81.4092 17.4603ZM93.7589 17.4603C92.3597 17.4603 91.2604 17.0605 90.4608 16.261C89.6756 15.4614 89.283 14.3478 89.283 12.9201V7.39471C89.283 7.12344 89.3544 6.91642 89.4971 6.77365C89.6399 6.6166 89.8326 6.53807 90.0754 6.53807C90.3181 6.53807 90.5037 6.6166 90.6322 6.77365C90.775 6.91642 90.8463 7.12344 90.8463 7.39471V12.9201C90.8463 13.9337 91.1176 14.719 91.6601 15.2758C92.2027 15.8326 92.9594 16.111 93.9302 16.111C94.7012 16.111 95.3865 15.9397 95.9862 15.5971C96.5858 15.2544 97.0499 14.7761 97.3782 14.1622C97.7209 13.5483 97.8922 12.8415 97.8922 12.042V7.39471C97.8922 7.12344 97.9565 6.91642 98.085 6.77365C98.2277 6.6166 98.4276 6.53807 98.6846 6.53807C98.9273 6.53807 99.1129 6.6166 99.2414 6.77365C99.3842 6.91642 99.4556 7.12344 99.4556 7.39471V16.6036C99.4556 16.8749 99.3842 17.089 99.2414 17.2461C99.1129 17.3889 98.9273 17.4603 98.6846 17.4603C98.4276 17.4603 98.2277 17.3817 98.085 17.2247C97.9565 17.0676 97.8922 16.8606 97.8922 16.6036V15.3401C97.364 16.0254 96.75 16.5536 96.0504 16.9249C95.3508 17.2818 94.587 17.4603 93.7589 17.4603ZM103.21 17.4603C102.968 17.4603 102.775 17.3889 102.632 17.2461C102.504 17.089 102.439 16.8749 102.439 16.6036V7.39471C102.439 7.12344 102.504 6.91642 102.632 6.77365C102.775 6.6166 102.968 6.53807 103.21 6.53807C103.467 6.53807 103.66 6.6166 103.789 6.77365C103.931 6.9307 104.003 7.13772 104.003 7.39471V8.61543C104.388 7.97295 104.881 7.4661 105.481 7.09489C106.094 6.72368 106.737 6.53807 107.408 6.53807C108.079 6.53807 108.672 6.72368 109.186 7.09489C109.699 7.45182 110.078 7.95867 110.321 8.61543C110.82 7.94439 111.37 7.43041 111.97 7.07347C112.584 6.71654 113.219 6.53807 113.876 6.53807C115.004 6.53807 115.853 6.88787 116.424 7.58746C116.995 8.27277 117.281 9.2936 117.281 10.65V16.6036C117.281 16.8749 117.209 17.089 117.067 17.2461C116.924 17.3889 116.731 17.4603 116.488 17.4603C115.974 17.4603 115.717 17.1747 115.717 16.6036V10.6071C115.717 9.69337 115.56 9.01519 115.246 8.57259C114.946 8.11572 114.425 7.88728 113.683 7.88728C113.055 7.88728 112.491 8.08003 111.991 8.46551C111.491 8.83673 111.092 9.37927 110.792 10.0931V16.6036C110.792 16.8749 110.72 17.089 110.578 17.2461C110.435 17.3889 110.242 17.4603 109.999 17.4603C109.757 17.4603 109.564 17.3889 109.421 17.2461C109.293 17.089 109.228 16.8749 109.228 16.6036V10.9284C109.228 9.94322 109.05 9.19366 108.693 8.67968C108.35 8.15141 107.858 7.88728 107.215 7.88728C106.601 7.88728 106.052 8.05861 105.566 8.40127C105.081 8.72965 104.695 9.18652 104.41 9.77189C104.138 10.3573 104.003 11.0212 104.003 11.7636V16.6036C104.003 16.8606 103.931 17.0676 103.789 17.2247C103.66 17.3817 103.467 17.4603 103.21 17.4603ZM120.883 23.6495C120.64 23.6495 120.447 23.571 120.305 23.4139C120.176 23.2711 120.112 23.0641 120.112 22.7928V7.39471C120.112 7.12344 120.176 6.91642 120.305 6.77365C120.447 6.6166 120.64 6.53807 120.883 6.53807C121.14 6.53807 121.333 6.6166 121.461 6.77365C121.604 6.9307 121.675 7.13772 121.675 7.39471V8.76534C122.775 7.28049 124.359 6.53807 126.43 6.53807C128.157 6.53807 129.514 7.01636 130.499 7.97295C131.498 8.92953 131.998 10.243 131.998 11.9135C131.998 13.0414 131.769 14.0265 131.312 14.8689C130.856 15.697 130.199 16.3395 129.342 16.7964C128.5 17.239 127.508 17.4603 126.365 17.4603C125.38 17.4603 124.509 17.2889 123.753 16.9463C123.01 16.5893 122.325 16.0325 121.697 15.2758V22.7928C121.697 23.0498 121.625 23.2569 121.482 23.4139C121.34 23.571 121.14 23.6495 120.883 23.6495ZM126.258 16.111C127.558 16.111 128.571 15.7398 129.299 14.9974C130.042 14.2407 130.413 13.1985 130.413 11.8707C130.413 10.5857 130.049 9.60056 129.321 8.91525C128.607 8.22994 127.579 7.88728 126.237 7.88728C124.823 7.88728 123.71 8.25135 122.896 8.9795C122.082 9.69337 121.675 10.6714 121.675 11.9135C121.675 12.7416 121.861 13.4769 122.232 14.1194C122.618 14.7476 123.153 15.2401 123.838 15.5971C124.538 15.9397 125.345 16.111 126.258 16.111ZM139.665 17.4603C137.808 17.4603 136.374 16.982 135.36 16.0254C134.346 15.0688 133.839 13.7124 133.839 11.9563C133.839 10.2716 134.353 8.95094 135.381 7.99436C136.409 7.0235 137.816 6.53807 139.6 6.53807C140.7 6.53807 141.678 6.71654 142.534 7.07347C143.391 7.41613 144.055 7.9087 144.526 8.55118C145.011 9.17938 145.254 9.90039 145.254 10.7142C145.254 11.3138 145.083 11.7779 144.74 12.1062C144.412 12.4346 143.955 12.5988 143.37 12.5988H135.446C135.446 13.6982 135.817 14.5619 136.559 15.1902C137.302 15.8041 138.337 16.111 139.665 16.111C140.478 16.111 141.178 16.0254 141.763 15.8541C142.349 15.6684 142.898 15.3758 143.412 14.976C143.684 14.7476 143.905 14.6333 144.076 14.6333C144.205 14.6333 144.326 14.6904 144.44 14.8047C144.64 14.976 144.74 15.1545 144.74 15.3401C144.74 15.4828 144.654 15.6399 144.483 15.8112C143.898 16.368 143.212 16.7821 142.427 17.0533C141.642 17.3246 140.721 17.4603 139.665 17.4603ZM142.898 11.3353C143.155 11.3353 143.348 11.2853 143.477 11.1854C143.605 11.0711 143.669 10.8713 143.669 10.5857C143.669 10.0717 143.498 9.6077 143.155 9.19366C142.813 8.77962 142.327 8.45838 141.699 8.22994C141.085 8.0015 140.386 7.88728 139.6 7.88728C138.33 7.88728 137.323 8.20138 136.581 8.82959C135.852 9.44351 135.488 10.2787 135.488 11.3353H142.898ZM148.47 17.4603C148.227 17.4603 148.034 17.3889 147.891 17.2461C147.763 17.089 147.699 16.8749 147.699 16.6036V7.39471C147.699 7.12344 147.763 6.91642 147.891 6.77365C148.02 6.6166 148.213 6.53807 148.47 6.53807C148.712 6.53807 148.898 6.6166 149.026 6.77365C149.169 6.91642 149.241 7.12344 149.241 7.39471V8.67968C150.211 7.39471 151.553 6.75223 153.267 6.75223H153.802C154.073 6.75223 154.288 6.81648 154.445 6.94497C154.602 7.05919 154.68 7.22338 154.68 7.43754C154.68 7.6517 154.602 7.81589 154.445 7.93011C154.288 8.04433 154.073 8.10144 153.802 8.10144H153.203C151.989 8.10144 151.025 8.45124 150.311 9.15083C149.612 9.83614 149.262 10.7713 149.262 11.9563V16.6036C149.262 16.8606 149.191 17.0676 149.048 17.2247C148.919 17.3817 148.727 17.4603 148.47 17.4603Z" fill="black"/>
<path d="M1.26753 17.2461L0.901842 17.5785L0.909752 17.5872L0.918068 17.5956L1.26753 17.2461ZM1.7601 2.94017L1.42135 2.58025L1.41605 2.58538L1.7601 2.94017ZM11.9541 11.014L12.2674 11.3963L12.268 11.3958L11.9541 11.014ZM2.65958 12.2776V11.7834H2.16536V12.2776H2.65958ZM2.44541 17.2461L2.79488 17.5956L2.80319 17.5872L2.81111 17.5785L2.44541 17.2461ZM10.712 10.1146L10.4276 9.71036L10.424 9.7129L10.712 10.1146ZM10.7548 4.48213L10.4443 4.86663L10.4488 4.87022L10.7548 4.48213ZM2.9594 3.92531L2.59885 3.5873L2.59305 3.59349L2.58746 3.59987L2.9594 3.92531ZM2.65958 10.9284H2.16536V11.4226H2.65958V10.9284ZM1.84577 16.966C1.70579 16.966 1.64881 16.9284 1.617 16.8966L0.918068 17.5956C1.1718 17.8493 1.50031 17.9545 1.84577 17.9545V16.966ZM1.63322 16.9136C1.59419 16.8707 1.54759 16.7873 1.54759 16.6036H0.559155C0.559155 16.9625 0.655331 17.3074 0.901842 17.5785L1.63322 16.9136ZM1.54759 16.6036V4.82479H0.559155V16.6036H1.54759ZM1.54759 4.82479C1.54759 4.12773 1.74931 3.63906 2.10415 3.29497L1.41605 2.58538C0.828588 3.15504 0.559155 3.92278 0.559155 4.82479H1.54759ZM2.09882 3.30006C2.46866 2.95198 3.00525 2.74908 3.77321 2.74908V1.76064C2.82788 1.76064 2.02241 2.01462 1.42138 2.58029L2.09882 3.30006ZM3.77321 2.74908H7.41394V1.76064H3.77321V2.74908ZM7.41394 2.74908C9.39142 2.74908 10.7825 3.16547 11.6741 3.91315C12.549 4.64687 13.0233 5.7684 13.0233 7.3733H14.0117C14.0117 5.5659 13.4688 4.12822 12.3092 3.15578C11.1663 2.19733 9.50551 1.76064 7.41394 1.76064V2.74908ZM13.0233 7.3733C13.0233 8.82305 12.549 9.8854 11.6403 10.6322L12.268 11.3958C13.4438 10.4294 14.0117 9.06457 14.0117 7.3733H13.0233ZM11.6409 10.6318C10.734 11.3749 9.37823 11.7834 7.4996 11.7834V12.7718C9.50442 12.7718 11.1183 12.3379 12.2674 11.3963L11.6409 10.6318ZM7.4996 11.7834H2.65958V12.7718H7.4996V11.7834ZM2.16536 12.2776V16.6036H3.15379V12.2776H2.16536ZM2.16536 16.6036C2.16536 16.7873 2.11876 16.8707 2.07972 16.9136L2.81111 17.5785C3.05762 17.3074 3.15379 16.9625 3.15379 16.6036H2.16536ZM2.09595 16.8966C2.0694 16.9232 2.00922 16.966 1.84577 16.966V17.9545C2.19629 17.9545 2.53588 17.8546 2.79488 17.5956L2.09595 16.8966ZM7.4996 11.4226C8.94004 11.4226 10.1274 11.1418 11 10.5162L10.424 9.7129C9.78319 10.1724 8.82897 10.4341 7.4996 10.4341V11.4226ZM10.9964 10.5187C11.9435 9.85226 12.3627 8.75555 12.3627 7.3733H11.3743C11.3743 8.56096 11.0225 9.29176 10.4276 9.71038L10.9964 10.5187ZM12.3627 7.3733C12.3627 5.94654 11.9661 4.80783 11.0608 4.09404L10.4488 4.87022C11.0284 5.32717 11.3743 6.1159 11.3743 7.3733H12.3627ZM11.0654 4.09766C10.2015 3.39988 8.99509 3.08844 7.52102 3.08844V4.07687C8.87387 4.07687 9.82337 4.36508 10.4443 4.8666L11.0654 4.09766ZM7.52102 3.08844H3.79463V4.07687H7.52102V3.08844ZM3.79463 3.08844C3.32969 3.08844 2.91581 3.24921 2.59885 3.5873L3.31995 4.26333C3.43131 4.14454 3.57425 4.07687 3.79463 4.07687V3.08844ZM2.58746 3.59987C2.29217 3.93735 2.16536 4.3617 2.16536 4.82479H3.15379C3.15379 4.54545 3.22686 4.37015 3.33134 4.25076L2.58746 3.59987ZM2.16536 4.82479V10.9284H3.15379V4.82479H2.16536ZM2.65958 11.4226H7.4996V10.4341H2.65958V11.4226ZM17.2824 16.261L16.9298 16.6073L16.9329 16.6104L17.2824 16.261ZM16.3187 6.77365L16.6681 7.12311L16.6764 7.11479L16.6844 7.10609L16.3187 6.77365ZM17.4537 6.77365L17.0712 7.0866L17.0868 7.10568L17.1042 7.12311L17.4537 6.77365ZM18.4817 15.2758L18.1277 15.6207L18.1277 15.6207L18.4817 15.2758ZM22.8077 15.5971L22.5625 15.168L22.5625 15.168L22.8077 15.5971ZM24.1998 14.1622L23.7682 13.9213L23.764 13.9291L24.1998 14.1622ZM24.9065 6.77365L24.5408 6.4412L24.5391 6.44303L24.9065 6.77365ZM26.063 6.77365L25.6805 7.0866L25.6961 7.10568L25.7135 7.12311L26.063 6.77365ZM26.063 17.2461L25.6973 16.9136L25.6956 16.9155L26.063 17.2461ZM24.9065 17.2247L24.524 17.5376L24.5321 17.5476L24.5408 17.5571L24.9065 17.2247ZM24.7138 15.3401H25.208V13.8894L24.3223 15.0383L24.7138 15.3401ZM22.872 16.9249L23.0966 17.3651L23.1036 17.3614L22.872 16.9249ZM20.5805 16.966C19.2794 16.966 18.3177 16.5974 17.6318 15.9115L16.9329 16.6104C17.8461 17.5236 19.0832 17.9545 20.5805 17.9545V16.966ZM17.635 15.9147C16.9636 15.231 16.5987 14.2554 16.5987 12.9201H15.6103C15.6103 14.4402 16.0307 15.6918 16.9298 16.6073L17.635 15.9147ZM16.5987 12.9201V7.39471H15.6103V12.9201H16.5987ZM16.5987 7.39471C16.5987 7.20813 16.6464 7.14487 16.6681 7.12311L15.9692 6.42418C15.7054 6.68797 15.6103 7.03876 15.6103 7.39471H16.5987ZM16.6844 7.10609C16.7196 7.06733 16.7714 7.03229 16.8969 7.03229V6.04385C16.537 6.04385 16.2033 6.16586 15.953 6.4412L16.6844 7.10609ZM16.8969 7.03229C17.0236 7.03229 17.0552 7.06707 17.0712 7.0866L17.8362 6.46069C17.5952 6.16612 17.2556 6.04385 16.8969 6.04385V7.03229ZM17.1042 7.12311C17.126 7.14487 17.1737 7.20813 17.1737 7.39471H18.1621C18.1621 7.03876 18.067 6.68797 17.8032 6.42418L17.1042 7.12311ZM17.1737 7.39471V12.9201H18.1621V7.39471H17.1737ZM17.1737 12.9201C17.1737 14.022 17.4704 14.9461 18.1277 15.6207L18.8357 14.9309C18.4079 14.4919 18.1621 13.8455 18.1621 12.9201H17.1737ZM18.1277 15.6207C18.7853 16.2956 19.6828 16.6053 20.7518 16.6053V15.6168C19.879 15.6168 19.2632 15.3697 18.8357 14.9309L18.1277 15.6207ZM20.7518 16.6053C21.5985 16.6053 22.3702 16.4163 23.0529 16.0262L22.5625 15.168C22.046 15.4631 21.447 15.6168 20.7518 15.6168V16.6053ZM23.0529 16.0262C23.734 15.637 24.2637 15.0905 24.6356 14.3953L23.764 13.9291C23.4791 14.4618 23.0808 14.8718 22.5625 15.168L23.0529 16.0262ZM24.6313 14.403C25.0204 13.7059 25.208 12.9141 25.208 12.042H24.2195C24.2195 12.7689 24.0644 13.3906 23.7682 13.9213L24.6313 14.403ZM25.208 12.042V7.39471H24.2195V12.042H25.208ZM25.208 7.39471C25.208 7.1954 25.2553 7.12488 25.2738 7.10426L24.5391 6.44303C24.3007 6.70796 24.2195 7.05148 24.2195 7.39471H25.208ZM25.2722 7.10609C25.3018 7.07347 25.3566 7.03229 25.5061 7.03229V6.04385C25.1417 6.04385 24.7967 6.15972 24.5408 6.4412L25.2722 7.10609ZM25.5061 7.03229C25.6328 7.03229 25.6645 7.06707 25.6805 7.0866L26.4455 6.46069C26.2045 6.16612 25.8649 6.04385 25.5061 6.04385V7.03229ZM25.7135 7.12311C25.7353 7.14487 25.7829 7.20813 25.7829 7.39471H26.7713C26.7713 7.03876 26.6762 6.68797 26.4124 6.42418L25.7135 7.12311ZM25.7829 7.39471V16.6036H26.7713V7.39471H25.7829ZM25.7829 16.6036C25.7829 16.7873 25.7363 16.8707 25.6973 16.9136L26.4287 17.5785C26.6752 17.3074 26.7713 16.9625 26.7713 16.6036H25.7829ZM25.6956 16.9155C25.6844 16.928 25.6483 16.966 25.5061 16.966V17.9545C25.8494 17.9545 26.1846 17.8498 26.4303 17.5767L25.6956 16.9155ZM25.5061 16.966C25.3566 16.966 25.3018 16.9249 25.2722 16.8922L24.5408 17.5571C24.7967 17.8386 25.1417 17.9545 25.5061 17.9545V16.966ZM25.289 16.9117C25.2502 16.8643 25.208 16.7776 25.208 16.6036H24.2195C24.2195 16.9436 24.3058 17.2709 24.524 17.5376L25.289 16.9117ZM25.208 16.6036V15.3401H24.2195V16.6036H25.208ZM24.3223 15.0383C23.8331 15.6731 23.2721 16.1531 22.6403 16.4883L23.1036 17.3614C23.8711 16.9542 24.5379 16.3777 25.1052 15.6418L24.3223 15.0383ZM22.6474 16.4846C22.0211 16.8041 21.3348 16.966 20.5805 16.966V17.9545C21.4823 17.9545 22.3236 17.7594 23.0966 17.3651L22.6474 16.4846ZM30.2247 16.0254L29.8828 16.3823L29.888 16.3872L30.2247 16.0254ZM29.3681 9.23649L28.9336 9.00086L28.9322 9.00353L29.3681 9.23649ZM31.3383 7.26622L31.5765 7.69926L31.579 7.6979L31.3383 7.26622ZM37.0778 7.1163L36.843 7.55118L36.8466 7.55309L37.0778 7.1163ZM39.0053 8.72251L38.6217 9.03416L39.4952 10.1092L39.4995 8.72405L39.0053 8.72251ZM39.0267 1.84796L39.5209 1.8495V1.84796H39.0267ZM39.2194 1.22689L38.8537 0.894441L38.8521 0.896277L39.2194 1.22689ZM40.3759 1.22689L39.9934 1.53985L40.009 1.55892L40.0264 1.57636L40.3759 1.22689ZM40.3759 17.2461L40.0102 16.9136L40.0086 16.9155L40.3759 17.2461ZM39.2409 17.2461L38.8752 17.5785L38.8831 17.5872L38.8914 17.5956L39.2409 17.2461ZM39.0267 15.233H39.5209V13.6394L38.6192 14.9533L39.0267 15.233ZM37.0993 16.9034L37.3137 17.3487L37.317 17.3471L37.0993 16.9034ZM37.8274 15.0188L38.1602 15.3842L38.1637 15.381L37.8274 15.0188ZM38.4056 9.81473L37.9885 10.0802L37.9959 10.0911L38.4056 9.81473ZM36.778 8.37985L36.5608 8.82378L36.5645 8.82554L36.778 8.37985ZM31.424 9.04375L31.7735 9.39323L31.7767 9.38993L31.424 9.04375ZM31.4026 15.1045L31.0674 15.4677L31.0712 15.4711L31.4026 15.1045ZM34.4222 16.966C32.7428 16.966 31.4758 16.5145 30.5614 15.6636L29.888 16.3872C31.0296 17.4495 32.5609 17.9545 34.4222 17.9545V16.966ZM30.5665 15.6685C29.6685 14.8084 29.1984 13.6268 29.1984 12.0634H28.2099C28.2099 13.841 28.7535 15.3007 29.8829 16.3823L30.5665 15.6685ZM29.1984 12.0634C29.1984 11.0778 29.4042 10.2173 29.8039 9.46945L28.9322 9.00353C28.4467 9.91187 28.2099 10.9359 28.2099 12.0634H29.1984ZM29.8025 9.47212C30.2133 8.71477 30.8011 8.12574 31.5765 7.69926L31.1002 6.83318C30.1623 7.34899 29.4366 8.07349 28.9336 9.00087L29.8025 9.47212ZM31.579 7.6979C32.3619 7.2615 33.3176 7.03229 34.4651 7.03229V6.04385C33.1855 6.04385 32.0566 6.30007 31.0977 6.83453L31.579 7.6979ZM34.4651 7.03229C35.4325 7.03229 36.218 7.21368 36.843 7.55117L37.3127 6.68144C36.5099 6.24795 35.5536 6.04385 34.4651 6.04385V7.03229ZM36.8466 7.55309C37.512 7.90534 38.1037 8.39662 38.6217 9.03416L39.3889 8.41086C38.7932 7.67777 38.1 7.09825 37.3091 6.67952L36.8466 7.55309ZM39.4995 8.72405L39.5209 1.8495L38.5325 1.84642L38.5111 8.72097L39.4995 8.72405ZM39.5209 1.84796C39.5209 1.64865 39.5682 1.57813 39.5868 1.5575L38.8521 0.896277C38.6137 1.1612 38.5325 1.50472 38.5325 1.84796H39.5209ZM39.5851 1.55934C39.6148 1.52672 39.6695 1.48553 39.8191 1.48553V0.497097C39.4547 0.497097 39.1096 0.612963 38.8538 0.894446L39.5851 1.55934ZM39.8191 1.48553C39.9458 1.48553 39.9774 1.52032 39.9934 1.53985L40.7584 0.913936C40.5174 0.619361 40.1778 0.497097 39.8191 0.497097V1.48553ZM40.0264 1.57636C40.0482 1.59812 40.0959 1.66137 40.0959 1.84796H41.0843C41.0843 1.492 40.9892 1.14121 40.7254 0.877426L40.0264 1.57636ZM40.0959 1.84796V16.6036H41.0843V1.84796H40.0959ZM40.0959 16.6036C40.0959 16.7873 40.0493 16.8707 40.0102 16.9136L40.7416 17.5785C40.9881 17.3074 41.0843 16.9625 41.0843 16.6036H40.0959ZM40.0086 16.9155C39.9973 16.928 39.9612 16.966 39.8191 16.966V17.9545C40.1624 17.9545 40.4975 17.8498 40.7433 17.5767L40.0086 16.9155ZM39.8191 16.966C39.6791 16.966 39.6221 16.9284 39.5903 16.8966L38.8914 17.5956C39.1451 17.8493 39.4736 17.9545 39.8191 17.9545V16.966ZM39.6066 16.9136C39.5675 16.8707 39.5209 16.7873 39.5209 16.6036H38.5325C38.5325 16.9625 38.6287 17.3074 38.8752 17.5785L39.6066 16.9136ZM39.5209 16.6036V15.233H38.5325V16.6036H39.5209ZM38.6192 14.9533C38.1671 15.6121 37.5897 16.1121 36.8815 16.4598L37.317 17.3471C38.1793 16.9238 38.8869 16.3101 39.4342 15.5126L38.6192 14.9533ZM36.8849 16.4581C36.192 16.7917 35.3753 16.966 34.4222 16.966V17.9545C35.4966 17.9545 36.4645 17.7576 37.3137 17.3487L36.8849 16.4581ZM34.5507 16.6053C36.0231 16.6053 37.2463 16.2165 38.1602 15.3842L37.4946 14.6534C36.8094 15.2774 35.8482 15.6168 34.5507 15.6168V16.6053ZM38.1637 15.381C39.0807 14.5295 39.5209 13.3825 39.5209 11.9992H38.5325C38.5325 13.1572 38.1731 14.0234 37.4911 14.6567L38.1637 15.381ZM39.5209 11.9992C39.5209 11.0723 39.2918 10.2448 38.8154 9.53839L37.9959 10.0911C38.3475 10.6125 38.5325 11.2413 38.5325 11.9992H39.5209ZM38.8226 9.54939C38.3722 8.84156 37.7584 8.3016 36.9916 7.93416L36.5645 8.82554C37.1683 9.11486 37.6396 9.53148 37.9887 10.0801L38.8226 9.54939ZM36.9952 7.93594C36.2519 7.57216 35.4416 7.39307 34.5722 7.39307V8.3815C35.3018 8.3815 35.9621 8.53078 36.5608 8.82376L36.9952 7.93594ZM34.5722 7.39307C33.1315 7.39307 31.9424 7.81004 31.0713 8.69757L31.7767 9.38993C32.419 8.7355 33.3286 8.3815 34.5722 8.3815V7.39307ZM31.0745 8.69428C30.2091 9.55972 29.7947 10.7005 29.7947 12.0634H30.7832C30.7832 10.9135 31.1255 10.0412 31.7735 9.39321L31.0745 8.69428ZM29.7947 12.0634C29.7947 13.496 30.1933 14.6608 31.0674 15.4676L31.7378 14.7413C31.127 14.1775 30.7832 13.315 30.7832 12.0634H29.7947ZM31.0712 15.4711C31.9325 16.2497 33.116 16.6053 34.5507 16.6053V15.6168C33.2728 15.6168 32.3575 15.3014 31.734 14.7378L31.0712 15.4711ZM44.509 16.0254L44.1672 16.3823L44.1724 16.3872L44.509 16.0254ZM43.6524 9.23649L43.218 9.00086L43.2165 9.00353L43.6524 9.23649ZM45.6227 7.26622L45.8609 7.69926L45.8633 7.6979L45.6227 7.26622ZM51.3622 7.1163L51.1273 7.55118L51.1309 7.55309L51.3622 7.1163ZM53.2896 8.72251L52.9061 9.03416L53.7795 10.1092L53.7838 8.72405L53.2896 8.72251ZM53.311 1.84796L53.8053 1.8495V1.84796H53.311ZM53.5038 1.22689L53.1381 0.894441L53.1364 0.896277L53.5038 1.22689ZM54.6602 1.22689L54.2777 1.53985L54.2934 1.55892L54.3108 1.57636L54.6602 1.22689ZM54.6602 17.2461L54.2946 16.9136L54.2929 16.9155L54.6602 17.2461ZM53.5252 17.2461L53.1595 17.5785L53.1674 17.5872L53.1757 17.5956L53.5252 17.2461ZM53.311 15.233H53.8053V13.6394L52.9035 14.9533L53.311 15.233ZM51.3836 16.9034L51.598 17.3487L51.6014 17.3471L51.3836 16.9034ZM52.1117 15.0188L52.4445 15.3842L52.448 15.381L52.1117 15.0188ZM52.69 9.81473L52.2729 10.0802L52.2802 10.0911L52.69 9.81473ZM51.0624 8.37985L50.8451 8.82378L50.8488 8.82554L51.0624 8.37985ZM45.7083 9.04375L46.0578 9.39323L46.0611 9.38993L45.7083 9.04375ZM45.6869 15.1045L45.3517 15.4677L45.3555 15.4711L45.6869 15.1045ZM48.7066 16.966C47.0272 16.966 45.7601 16.5145 44.8457 15.6636L44.1724 16.3872C45.3139 17.4495 46.8452 17.9545 48.7066 17.9545V16.966ZM44.8509 15.6685C43.9529 14.8084 43.4827 13.6268 43.4827 12.0634H42.4943C42.4943 13.841 43.0378 15.3007 44.1672 16.3823L44.8509 15.6685ZM43.4827 12.0634C43.4827 11.0778 43.6886 10.2173 44.0883 9.46945L43.2165 9.00353C42.731 9.91187 42.4943 10.9359 42.4943 12.0634H43.4827ZM44.0868 9.47212C44.4976 8.71477 45.0854 8.12574 45.8608 7.69926L45.3845 6.83318C44.4467 7.34899 43.721 8.07349 43.218 9.00087L44.0868 9.47212ZM45.8633 7.6979C46.6463 7.2615 47.6019 7.03229 48.7494 7.03229V6.04385C47.4698 6.04385 46.3409 6.30007 45.3821 6.83453L45.8633 7.6979ZM48.7494 7.03229C49.7168 7.03229 50.5024 7.21368 51.1273 7.55117L51.597 6.68144C50.7942 6.24795 49.838 6.04385 48.7494 6.04385V7.03229ZM51.1309 7.55309C51.7963 7.90534 52.3881 8.39662 52.9061 9.03416L53.6732 8.41086C53.0776 7.67777 52.3843 7.09825 51.5934 6.67952L51.1309 7.55309ZM53.7838 8.72405L53.8053 1.8495L52.8168 1.84642L52.7954 8.72097L53.7838 8.72405ZM53.8053 1.84796C53.8053 1.64865 53.8526 1.57813 53.8711 1.5575L53.1364 0.896277C52.898 1.1612 52.8168 1.50472 52.8168 1.84796H53.8053ZM53.8695 1.55934C53.8991 1.52672 53.9539 1.48553 54.1034 1.48553V0.497097C53.739 0.497097 53.394 0.612963 53.1381 0.894446L53.8695 1.55934ZM54.1034 1.48553C54.2301 1.48553 54.2618 1.52032 54.2777 1.53985L55.0428 0.913936C54.8017 0.619361 54.4622 0.497097 54.1034 0.497097V1.48553ZM54.3108 1.57636C54.3325 1.59812 54.3802 1.66137 54.3802 1.84796H55.3686C55.3686 1.492 55.2735 1.14121 55.0097 0.877426L54.3108 1.57636ZM54.3802 1.84796V16.6036H55.3686V1.84796H54.3802ZM54.3802 16.6036C54.3802 16.7873 54.3336 16.8707 54.2946 16.9136L55.0259 17.5785C55.2724 17.3074 55.3686 16.9625 55.3686 16.6036H54.3802ZM54.2929 16.9155C54.2817 16.928 54.2456 16.966 54.1034 16.966V17.9545C54.4467 17.9545 54.7818 17.8498 55.0276 17.5767L54.2929 16.9155ZM54.1034 16.966C53.9635 16.966 53.9065 16.9284 53.8747 16.8966L53.1757 17.5956C53.4295 17.8493 53.758 17.9545 54.1034 17.9545V16.966ZM53.8909 16.9136C53.8519 16.8707 53.8053 16.7873 53.8053 16.6036H52.8168C52.8168 16.9625 52.913 17.3074 53.1595 17.5785L53.8909 16.9136ZM53.8053 16.6036V15.233H52.8168V16.6036H53.8053ZM52.9035 14.9533C52.4514 15.6121 51.874 16.1121 51.1658 16.4598L51.6014 17.3471C52.4637 16.9238 53.1712 16.3101 53.7185 15.5126L52.9035 14.9533ZM51.1692 16.4581C50.4763 16.7917 49.6596 16.966 48.7066 16.966V17.9545C49.7809 17.9545 50.7489 17.7576 51.598 17.3487L51.1692 16.4581ZM48.8351 16.6053C50.3074 16.6053 51.5306 16.2165 52.4445 15.3842L51.779 14.6534C51.0938 15.2774 50.1326 15.6168 48.8351 15.6168V16.6053ZM52.448 15.381C53.3651 14.5295 53.8053 13.3825 53.8053 11.9992H52.8168C52.8168 13.1572 52.4575 14.0234 51.7754 14.6567L52.448 15.381ZM53.8053 11.9992C53.8053 11.0723 53.5761 10.2448 53.0997 9.53839L52.2802 10.0911C52.6319 10.6125 52.8168 11.2413 52.8168 11.9992H53.8053ZM53.1069 9.54939C52.6565 8.84156 52.0427 8.3016 51.2759 7.93416L50.8488 8.82554C51.4526 9.11486 51.9239 9.53148 52.273 10.0801L53.1069 9.54939ZM51.2796 7.93594C50.5362 7.57216 49.7259 7.39307 48.8565 7.39307V8.3815C49.5861 8.3815 50.2464 8.53078 50.8451 8.82376L51.2796 7.93594ZM48.8565 7.39307C47.4159 7.39307 46.2267 7.81004 45.3556 8.69757L46.0611 9.38993C46.7034 8.7355 47.613 8.3815 48.8565 8.3815V7.39307ZM45.3589 8.69428C44.4934 9.55972 44.0791 10.7005 44.0791 12.0634H45.0675C45.0675 10.9135 45.4098 10.0412 46.0578 9.39321L45.3589 8.69428ZM44.0791 12.0634C44.0791 13.496 44.4777 14.6608 45.3517 15.4676L46.0221 14.7413C45.4113 14.1775 45.0675 13.315 45.0675 12.0634H44.0791ZM45.3555 15.4711C46.2169 16.2497 47.4003 16.6053 48.8351 16.6053V15.6168C47.5572 15.6168 46.6418 15.3014 46.0183 14.7378L45.3555 15.4711ZM58.4935 17.2461L58.111 17.5591L58.1267 17.5781L58.1441 17.5956L58.4935 17.2461ZM58.4935 1.22689L58.1279 0.894441L58.1262 0.896277L58.4935 1.22689ZM59.65 1.22689L59.2843 1.55934L59.2922 1.56804L59.3006 1.57635L59.65 1.22689ZM59.65 17.2247L59.2843 16.8922L59.2757 16.9018L59.2675 16.9117L59.65 17.2247ZM59.0718 16.966C58.9318 16.966 58.8748 16.9284 58.843 16.8966L58.1441 17.5956C58.3978 17.8493 58.7263 17.9545 59.0718 17.9545V16.966ZM58.8761 16.9331C58.8409 16.8902 58.795 16.7993 58.795 16.6036H57.8066C57.8066 16.9504 57.8892 17.2879 58.111 17.5591L58.8761 16.9331ZM58.795 16.6036V1.84796H57.8066V16.6036H58.795ZM58.795 1.84796C58.795 1.64865 58.8423 1.57813 58.8609 1.5575L58.1262 0.896277C57.8878 1.1612 57.8066 1.50472 57.8066 1.84796H58.795ZM58.8592 1.55934C58.8945 1.52058 58.9463 1.48553 59.0718 1.48553V0.497097C58.7119 0.497097 58.3782 0.619103 58.1279 0.894445L58.8592 1.55934ZM59.0718 1.48553C59.1973 1.48553 59.2491 1.52058 59.2843 1.55934L60.0157 0.894445C59.7654 0.619103 59.4317 0.497097 59.0718 0.497097V1.48553ZM59.3006 1.57635C59.3223 1.59812 59.37 1.66137 59.37 1.84796H60.3584C60.3584 1.492 60.2633 1.14121 59.9995 0.877427L59.3006 1.57635ZM59.37 1.84796V16.6036H60.3584V1.84796H59.37ZM59.37 16.6036C59.37 16.7649 59.3277 16.8445 59.2843 16.8922L60.0157 17.5571C60.2579 17.2908 60.3584 16.9563 60.3584 16.6036H59.37ZM59.2675 16.9117C59.2571 16.9245 59.2235 16.966 59.0718 16.966V17.9545C59.4341 17.9545 59.786 17.839 60.0325 17.5376L59.2675 16.9117ZM64.252 16.0254L64.5911 15.6659L64.5911 15.6659L64.252 16.0254ZM64.2734 7.99436L64.6101 8.35617L64.6127 8.35366L64.2734 7.99436ZM71.4263 7.07347L71.2362 7.52972L71.2428 7.53234L71.4263 7.07347ZM73.418 8.55118L73.0194 8.84353L73.027 8.85337L73.418 8.55118ZM73.6322 12.1062L73.2902 11.7493L73.2827 11.7568L73.6322 12.1062ZM64.3376 12.5988V12.1046H63.8434V12.5988H64.3376ZM65.4513 15.1902L65.132 15.5675L65.1363 15.571L65.4513 15.1902ZM70.6554 15.8541L70.7942 16.3285L70.8047 16.3252L70.6554 15.8541ZM72.3044 14.976L72.6078 15.3661L72.6154 15.3602L72.6227 15.354L72.3044 14.976ZM73.3324 14.8047L72.9829 15.1541L72.9963 15.1675L73.0107 15.1799L73.3324 14.8047ZM73.3752 15.8112L73.7159 16.1694L73.7247 16.1607L73.3752 15.8112ZM71.3193 17.0533L71.4806 17.5205L71.4806 17.5205L71.3193 17.0533ZM72.3686 11.1854L72.6721 11.5755L72.6849 11.5655L72.697 11.5547L72.3686 11.1854ZM72.0474 9.19366L71.6667 9.50876L71.6667 9.50876L72.0474 9.19366ZM70.5911 8.22994L70.4188 8.69314L70.4222 8.6944L70.5911 8.22994ZM65.4727 8.82959L65.7912 9.20743L65.7919 9.20687L65.4727 8.82959ZM64.3805 11.3353H63.8862V11.8295H64.3805V11.3353ZM68.5566 16.966C66.7838 16.966 65.4861 16.5105 64.5911 15.6659L63.9128 16.3848C65.0452 17.4535 66.6173 17.9545 68.5566 17.9545V16.966ZM64.5911 15.6659C63.7008 14.8257 63.2256 13.614 63.2256 11.9563H62.2372C62.2372 13.8109 62.7758 15.3119 63.9128 16.3848L64.5911 15.6659ZM63.2256 11.9563C63.2256 10.3792 63.7024 9.20078 64.61 8.35616L63.9367 7.63256C62.7884 8.70111 62.2372 10.164 62.2372 11.9563H63.2256ZM64.6127 8.35366C65.5266 7.49056 66.7993 7.03229 68.4923 7.03229V6.04385C66.616 6.04385 65.0761 6.55644 63.934 7.63506L64.6127 8.35366ZM68.4923 7.03229C69.5383 7.03229 70.4499 7.20202 71.2363 7.52967L71.6164 6.61727C70.6895 6.23106 69.6451 6.04385 68.4923 6.04385V7.03229ZM71.2428 7.53234C72.0274 7.84619 72.6112 8.28667 73.0195 8.84344L73.8166 8.25892C73.2826 7.53073 72.5385 6.98606 71.6099 6.6146L71.2428 7.53234ZM73.027 8.85337C73.4437 9.39271 73.652 10.0068 73.652 10.7142H74.6404C74.6404 9.79398 74.3632 8.96605 73.8091 8.24899L73.027 8.85337ZM73.652 10.7142C73.652 11.2167 73.5115 11.5374 73.2902 11.7494L73.9741 12.4631C74.4382 12.0183 74.6404 11.411 74.6404 10.7142H73.652ZM73.2827 11.7568C73.0697 11.9698 72.7518 12.1046 72.2616 12.1046V13.093C72.942 13.093 73.5379 12.8994 73.9817 12.4557L73.2827 11.7568ZM72.2616 12.1046H64.3376V13.093H72.2616V12.1046ZM63.8434 12.5988C63.8434 13.8223 64.2634 14.8324 65.132 15.5674L65.7705 14.8129C65.1543 14.2915 64.8318 13.574 64.8318 12.5988H63.8434ZM65.1363 15.571C65.9957 16.2817 67.157 16.6053 68.5566 16.6053V15.6168C67.3006 15.6168 66.3916 15.3265 65.7662 14.8093L65.1363 15.571ZM68.5566 16.6053C69.4027 16.6053 70.1515 16.5165 70.7942 16.3284L70.5165 15.3797C69.9884 15.5343 69.338 15.6168 68.5566 15.6168V16.6053ZM70.8047 16.3252C71.4491 16.1208 72.0505 15.7996 72.6078 15.3661L72.001 14.5859C71.5303 14.9519 71.0323 15.2161 70.506 15.3829L70.8047 16.3252ZM72.6227 15.354C72.741 15.2544 72.8331 15.1929 72.9005 15.1582C72.9706 15.122 72.9891 15.1276 72.9683 15.1276V14.1391C72.6073 14.1391 72.267 14.3614 71.986 14.598L72.6227 15.354ZM72.9683 15.1276C72.9635 15.1276 72.9582 15.127 72.9532 15.1258C72.9483 15.1247 72.9455 15.1235 72.9452 15.1233C72.9449 15.1232 72.9581 15.1294 72.9829 15.1541L73.6818 14.4552C73.5 14.2734 73.2596 14.1391 72.9683 14.1391V15.1276ZM73.0107 15.1799C73.0786 15.2381 73.1113 15.2821 73.126 15.3085C73.1331 15.3211 73.1358 15.3292 73.1369 15.333C73.1379 15.3366 73.138 15.3386 73.138 15.3401H74.1264C74.1264 14.9576 73.916 14.654 73.654 14.4294L73.0107 15.1799ZM73.138 15.3401C73.138 15.3104 73.1471 15.3043 73.1341 15.3283C73.1202 15.3536 73.089 15.3985 73.0257 15.4618L73.7247 16.1607C73.9281 15.9573 74.1264 15.6801 74.1264 15.3401H73.138ZM73.0346 15.4531C72.5019 15.9598 71.8782 16.3374 71.1579 16.5862L71.4806 17.5205C72.3308 17.2268 73.0777 16.7763 73.7158 16.1693L73.0346 15.4531ZM71.1579 16.5862C70.4365 16.8354 69.5724 16.966 68.5566 16.966V17.9545C69.6538 17.9545 70.6315 17.8138 71.4806 17.5205L71.1579 16.5862ZM71.7904 11.8295C72.0978 11.8295 72.4193 11.772 72.6721 11.5755L72.0652 10.7952C72.061 10.7986 71.997 10.841 71.7904 10.841V11.8295ZM72.697 11.5547C72.9834 11.3001 73.0556 10.9224 73.0556 10.5857H72.0672C72.0672 10.6943 72.0546 10.7615 72.0427 10.7985C72.0316 10.8329 72.0253 10.8293 72.0403 10.816L72.697 11.5547ZM73.0556 10.5857C73.0556 9.95112 72.8405 9.37685 72.4281 8.87856L71.6667 9.50876C71.9396 9.83856 72.0672 10.1923 72.0672 10.5857H73.0556ZM72.4281 8.87856C72.0173 8.38209 71.4509 8.01671 70.76 7.76548L70.4222 8.6944C70.9877 8.90004 71.3922 9.17714 71.6667 9.50876L72.4281 8.87856ZM70.7635 7.76675C70.0846 7.51416 69.325 7.39307 68.4923 7.39307V8.3815C69.2301 8.3815 69.8697 8.48884 70.4188 8.69313L70.7635 7.76675ZM68.4923 7.39307C67.1411 7.39307 66.0094 7.72802 65.1534 8.45231L65.7919 9.20687C66.4208 8.67475 67.3021 8.3815 68.4923 8.3815V7.39307ZM65.1541 8.45175C64.3015 9.17057 63.8862 10.151 63.8862 11.3353H64.8747C64.8747 10.4065 65.1875 9.71646 65.7912 9.20743L65.1541 8.45175ZM64.3805 11.8295H71.7904V10.841H64.3805V11.8295ZM76.2051 15.0188L76.5997 14.7212L76.5938 14.7134L76.5876 14.7059L76.2051 15.0188ZM76.3122 13.9909L76.6175 14.3795L76.6293 14.3702L76.6405 14.3602L76.3122 13.9909ZM77.4472 14.1622L77.8477 13.8725L77.8426 13.8657L77.4472 14.1622ZM79.0963 15.6185L78.8794 16.0626L78.8834 16.0645L79.0963 15.6185ZM83.7864 15.1687L83.4245 14.8321L83.4242 14.8324L83.7864 15.1687ZM84.8358 2.27628L84.4701 1.94383L84.4684 1.94566L84.8358 2.27628ZM86.0351 2.27628L85.6694 2.60872L85.6852 2.62614L85.7026 2.64197L86.0351 2.27628ZM85.6496 15.1045L86.0812 15.3452L86.0832 15.3417L85.6496 15.1045ZM83.9149 16.8392L83.6742 16.4075L83.6706 16.4096L83.9149 16.8392ZM81.4092 16.966C79.305 16.966 77.7239 16.2115 76.5997 14.7212L75.8106 15.3165C77.142 17.0814 79.0304 17.9545 81.4092 17.9545V16.966ZM76.5876 14.7059C76.51 14.6109 76.5066 14.5609 76.5066 14.5477H75.5182C75.5182 14.8486 75.6433 15.1126 75.8226 15.3318L76.5876 14.7059ZM76.5066 14.5477C76.5066 14.5143 76.512 14.4624 76.6175 14.3795L76.0069 13.6022C75.7127 13.8334 75.5182 14.1527 75.5182 14.5477H76.5066ZM76.6405 14.3602C76.671 14.3331 76.7083 14.3137 76.7834 14.3137V13.3253C76.4872 13.3253 76.2103 13.4202 75.9839 13.6215L76.6405 14.3602ZM76.7834 14.3137C76.8897 14.3137 76.9681 14.3471 77.0519 14.4587L77.8426 13.8657C77.5837 13.5204 77.2195 13.3253 76.7834 13.3253V14.3137ZM77.0468 14.4519C77.5698 15.1748 78.1786 15.7203 78.8794 16.0626L79.3132 15.1744C78.7861 14.917 78.2955 14.4916 77.8477 13.8725L77.0468 14.4519ZM78.8834 16.0645C79.5955 16.4044 80.4439 16.5624 81.4092 16.5624V15.574C80.5471 15.574 79.8535 15.4322 79.3092 15.1725L78.8834 16.0645ZM81.4092 16.5624C82.537 16.5624 83.4754 16.23 84.1486 15.505L83.4242 14.8324C82.9838 15.3068 82.3373 15.574 81.4092 15.574V16.5624ZM84.1483 15.5054C84.8282 14.7744 85.1373 13.7831 85.1373 12.5988H84.1488C84.1488 13.6132 83.8868 14.3352 83.4245 14.8321L84.1483 15.5054ZM85.1373 12.5988V2.89734H84.1488V12.5988H85.1373ZM85.1373 2.89734C85.1373 2.69803 85.1846 2.62751 85.2031 2.60689L84.4684 1.94566C84.23 2.21059 84.1488 2.55411 84.1488 2.89734H85.1373ZM85.2015 2.60872C85.2311 2.5761 85.2859 2.53492 85.4354 2.53492V1.54648C85.071 1.54648 84.726 1.66235 84.4701 1.94383L85.2015 2.60872ZM85.4354 2.53492C85.585 2.53492 85.6397 2.5761 85.6694 2.60872L86.4008 1.94383C86.1449 1.66235 85.7999 1.54648 85.4354 1.54648V2.53492ZM85.7026 2.64197C85.7297 2.66653 85.7764 2.72409 85.7764 2.89734H86.7649C86.7649 2.52805 86.6546 2.17157 86.3675 1.91059L85.7026 2.64197ZM85.7764 2.89734V12.5131H86.7649V2.89734H85.7764ZM85.7764 12.5131C85.7764 13.4117 85.5855 14.192 85.216 14.8673L86.0832 15.3417C86.5418 14.5035 86.7649 13.5563 86.7649 12.5131H85.7764ZM85.218 14.8638C84.8486 15.5261 84.3365 16.0382 83.6742 16.4076L84.1556 17.2708C84.9782 16.8121 85.6225 16.1678 86.0812 15.3452L85.218 14.8638ZM83.6706 16.4096C83.0259 16.7762 82.2768 16.966 81.4092 16.966V17.9545C82.4263 17.9545 83.3476 17.7303 84.1592 17.2688L83.6706 16.4096ZM90.4608 16.261L90.1082 16.6073L90.1114 16.6104L90.4608 16.261ZM89.4971 6.77365L89.8466 7.12311L89.8549 7.11479L89.8628 7.10609L89.4971 6.77365ZM90.6322 6.77365L90.2497 7.0866L90.2653 7.10568L90.2827 7.12311L90.6322 6.77365ZM91.6601 15.2758L91.3062 15.6207L91.3062 15.6207L91.6601 15.2758ZM95.9862 15.5971L95.741 15.168L95.741 15.168L95.9862 15.5971ZM97.3782 14.1622L96.9466 13.9213L96.9424 13.9291L97.3782 14.1622ZM98.085 6.77365L97.7193 6.4412L97.7176 6.44303L98.085 6.77365ZM99.2414 6.77365L98.8589 7.0866L98.8745 7.10568L98.892 7.12311L99.2414 6.77365ZM99.2414 17.2461L98.8757 16.9136L98.8741 16.9155L99.2414 17.2461ZM98.085 17.2247L97.7025 17.5376L97.7106 17.5476L97.7193 17.5571L98.085 17.2247ZM97.8922 15.3401H98.3864V13.8894L97.5008 15.0383L97.8922 15.3401ZM96.0504 16.9249L96.2751 17.3651L96.2821 17.3614L96.0504 16.9249ZM93.7589 16.966C92.4578 16.966 91.4962 16.5974 90.8103 15.9115L90.1114 16.6104C91.0246 17.5236 92.2616 17.9545 93.7589 17.9545V16.966ZM90.8134 15.9147C90.142 15.231 89.7772 14.2554 89.7772 12.9201H88.7887C88.7887 14.4402 89.2092 15.6918 90.1083 16.6073L90.8134 15.9147ZM89.7772 12.9201V7.39471H88.7887V12.9201H89.7772ZM89.7772 7.39471C89.7772 7.20813 89.8248 7.14487 89.8466 7.12311L89.1477 6.42418C88.8839 6.68797 88.7887 7.03876 88.7887 7.39471H89.7772ZM89.8628 7.10609C89.8981 7.06733 89.9498 7.03229 90.0754 7.03229V6.04385C89.7155 6.04385 89.3817 6.16586 89.1314 6.4412L89.8628 7.10609ZM90.0754 7.03229C90.202 7.03229 90.2337 7.06707 90.2497 7.0866L91.0147 6.46069C90.7737 6.16612 90.4341 6.04385 90.0754 6.04385V7.03229ZM90.2827 7.12311C90.3045 7.14487 90.3521 7.20813 90.3521 7.39471H91.3406C91.3406 7.03876 91.2454 6.68797 90.9816 6.42418L90.2827 7.12311ZM90.3521 7.39471V12.9201H91.3406V7.39471H90.3521ZM90.3521 12.9201C90.3521 14.022 90.6489 14.9461 91.3062 15.6207L92.0141 14.9309C91.5863 14.4919 91.3406 13.8455 91.3406 12.9201H90.3521ZM91.3062 15.6207C91.9637 16.2956 92.8613 16.6053 93.9302 16.6053V15.6168C93.0575 15.6168 92.4417 15.3697 92.0141 14.9309L91.3062 15.6207ZM93.9302 16.6053C94.777 16.6053 95.5487 16.4163 96.2314 16.0262L95.741 15.168C95.2244 15.4631 94.6254 15.6168 93.9302 15.6168V16.6053ZM96.2314 16.0262C96.9124 15.637 97.4422 15.0905 97.814 14.3953L96.9424 13.9291C96.6575 14.4618 96.2593 14.8718 95.741 15.168L96.2314 16.0262ZM97.8098 14.403C98.1989 13.7059 98.3864 12.9141 98.3864 12.042H97.398C97.398 12.7689 97.2429 13.3906 96.9467 13.9213L97.8098 14.403ZM98.3864 12.042V7.39471H97.398V12.042H98.3864ZM98.3864 7.39471C98.3864 7.1954 98.4337 7.12488 98.4523 7.10426L97.7176 6.44303C97.4792 6.70796 97.398 7.05148 97.398 7.39471H98.3864ZM98.4507 7.10609C98.4803 7.07347 98.535 7.03229 98.6846 7.03229V6.04385C98.3202 6.04385 97.9752 6.15972 97.7193 6.4412L98.4507 7.10609ZM98.6846 7.03229C98.8113 7.03229 98.8429 7.06707 98.8589 7.0866L99.6239 6.46069C99.3829 6.16612 99.0434 6.04385 98.6846 6.04385V7.03229ZM98.892 7.12311C98.9137 7.14487 98.9614 7.20813 98.9614 7.39471H99.9498C99.9498 7.03876 99.8547 6.68797 99.5909 6.42418L98.892 7.12311ZM98.9614 7.39471V16.6036H99.9498V7.39471H98.9614ZM98.9614 16.6036C98.9614 16.7873 98.9148 16.8707 98.8757 16.9136L99.6071 17.5785C99.8536 17.3074 99.9498 16.9625 99.9498 16.6036H98.9614ZM98.8741 16.9155C98.8628 16.928 98.8268 16.966 98.6846 16.966V17.9545C99.0279 17.9545 99.363 17.8498 99.6088 17.5767L98.8741 16.9155ZM98.6846 16.966C98.535 16.966 98.4803 16.9249 98.4507 16.8922L97.7193 17.5571C97.9752 17.8386 98.3202 17.9545 98.6846 17.9545V16.966ZM98.4675 16.9117C98.4287 16.8643 98.3864 16.7776 98.3864 16.6036H97.398C97.398 16.9436 97.4842 17.2709 97.7025 17.5376L98.4675 16.9117ZM98.3864 16.6036V15.3401H97.398V16.6036H98.3864ZM97.5008 15.0383C97.0115 15.6731 96.4505 16.1531 95.8188 16.4883L96.2821 17.3614C97.0495 16.9542 97.7164 16.3777 98.2836 15.6418L97.5008 15.0383ZM95.8258 16.4846C95.1996 16.8041 94.5133 16.966 93.7589 16.966V17.9545C94.6607 17.9545 95.5021 17.7594 96.275 17.3651L95.8258 16.4846ZM102.632 17.2461L102.25 17.5591L102.265 17.5781L102.283 17.5956L102.632 17.2461ZM102.632 6.77365L102.266 6.4412L102.265 6.44303L102.632 6.77365ZM103.789 6.77365L103.406 7.0866L103.414 7.09657L103.423 7.10609L103.789 6.77365ZM104.003 8.61543H103.509V10.3997L104.427 8.8697L104.003 8.61543ZM105.481 7.09489L105.225 6.67195L105.22 6.67467L105.481 7.09489ZM109.186 7.09489L108.896 7.49561L108.904 7.50082L109.186 7.09489ZM110.321 8.61543L109.857 8.78675L110.173 9.64131L110.717 8.91061L110.321 8.61543ZM111.97 7.07347L111.721 6.64619L111.717 6.64879L111.97 7.07347ZM116.424 7.58746L116.041 7.9L116.044 7.90385L116.424 7.58746ZM117.067 17.2461L117.416 17.5956L117.424 17.5872L117.432 17.5785L117.067 17.2461ZM115.246 8.57259L114.833 8.84375L114.838 8.85128L114.843 8.85862L115.246 8.57259ZM111.991 8.46551L112.286 8.86231L112.293 8.85683L111.991 8.46551ZM110.792 10.0931L110.336 9.90176L110.297 9.99356V10.0931H110.792ZM110.578 17.2461L110.927 17.5956L110.935 17.5872L110.943 17.5785L110.578 17.2461ZM109.421 17.2461L109.039 17.5591L109.054 17.5781L109.072 17.5956L109.421 17.2461ZM108.693 8.67968L108.278 8.94862L108.283 8.95517L108.287 8.96157L108.693 8.67968ZM105.566 8.40127L105.843 8.8107L105.851 8.80503L105.566 8.40127ZM104.41 9.77189L103.965 9.55517L103.961 9.56409L104.41 9.77189ZM103.789 17.2247L103.423 16.8922L103.414 16.9018L103.406 16.9117L103.789 17.2247ZM103.21 16.966C103.07 16.966 103.013 16.9284 102.982 16.8966L102.283 17.5956C102.536 17.8493 102.865 17.9545 103.21 17.9545V16.966ZM103.015 16.9331C102.98 16.8902 102.934 16.7993 102.934 16.6036H101.945C101.945 16.9504 102.028 17.2879 102.25 17.5591L103.015 16.9331ZM102.934 16.6036V7.39471H101.945V16.6036H102.934ZM102.934 7.39471C102.934 7.1954 102.981 7.12488 103 7.10426L102.265 6.44303C102.026 6.70796 101.945 7.05148 101.945 7.39471H102.934ZM102.998 7.10609C103.033 7.06733 103.085 7.03229 103.21 7.03229V6.04385C102.851 6.04385 102.517 6.16586 102.267 6.4412L102.998 7.10609ZM103.21 7.03229C103.362 7.03229 103.396 7.07383 103.406 7.0866L104.171 6.46069C103.925 6.15936 103.573 6.04385 103.21 6.04385V7.03229ZM103.423 7.10609C103.466 7.15383 103.509 7.2334 103.509 7.39471H104.497C104.497 7.04204 104.396 6.70756 104.154 6.4412L103.423 7.10609ZM103.509 7.39471V8.61543H104.497V7.39471H103.509ZM104.427 8.8697C104.774 8.29045 105.212 7.84226 105.741 7.5151L105.22 6.67467C104.55 7.08994 104.002 7.65544 103.579 8.36115L104.427 8.8697ZM105.736 7.5178C106.279 7.18988 106.833 7.03229 107.408 7.03229V6.04385C106.641 6.04385 105.91 6.25747 105.225 6.67197L105.736 7.5178ZM107.408 7.03229C107.982 7.03229 108.471 7.18882 108.896 7.49554L109.475 6.69424C108.872 6.25853 108.176 6.04385 107.408 6.04385V7.03229ZM108.904 7.50082C109.325 7.79324 109.645 8.21319 109.857 8.78675L110.784 8.44411C110.511 7.70414 110.074 7.1104 109.467 6.68895L108.904 7.50082ZM110.717 8.91061C111.185 8.28161 111.689 7.81587 112.222 7.49815L111.717 6.64879C111.051 7.04494 110.455 7.60718 109.924 8.32025L110.717 8.91061ZM112.218 7.50073C112.763 7.18397 113.313 7.03229 113.876 7.03229V6.04385C113.125 6.04385 112.404 6.24911 111.721 6.64622L112.218 7.50073ZM113.876 7.03229C114.895 7.03229 115.587 7.34338 116.041 7.89999L116.807 7.27493C116.119 6.43235 115.112 6.04385 113.876 6.04385V7.03229ZM116.044 7.90385C116.512 8.46434 116.787 9.35158 116.787 10.65H117.775C117.775 9.23562 117.479 8.0812 116.804 7.27107L116.044 7.90385ZM116.787 10.65V16.6036H117.775V10.65H116.787ZM116.787 16.6036C116.787 16.7873 116.74 16.8707 116.701 16.9136L117.432 17.5785C117.679 17.3074 117.775 16.9625 117.775 16.6036H116.787ZM116.717 16.8966C116.685 16.9284 116.628 16.966 116.488 16.966V17.9545C116.834 17.9545 117.162 17.8493 117.416 17.5956L116.717 16.8966ZM116.488 16.966C116.322 16.966 116.283 16.9222 116.277 16.9155C116.263 16.8989 116.212 16.8251 116.212 16.6036H115.223C115.223 16.9532 115.301 17.3077 115.543 17.5767C115.794 17.8556 116.141 17.9545 116.488 17.9545V16.966ZM116.212 16.6036V10.6071H115.223V16.6036H116.212ZM116.212 10.6071C116.212 9.65398 116.051 8.8526 115.649 8.28657L114.843 8.85862C115.07 9.17779 115.223 9.73276 115.223 10.6071H116.212ZM115.659 8.30144C115.237 7.65803 114.526 7.39307 113.683 7.39307V8.3815C114.325 8.3815 114.656 8.57341 114.833 8.84375L115.659 8.30144ZM113.683 7.39307C112.945 7.39307 112.275 7.62233 111.689 8.0742L112.293 8.85683C112.707 8.53772 113.164 8.3815 113.683 8.3815V7.39307ZM111.696 8.06879C111.11 8.50425 110.662 9.126 110.336 9.90176L111.247 10.2845C111.521 9.63253 111.872 9.16921 112.286 8.86224L111.696 8.06879ZM110.297 10.0931V16.6036H111.286V10.0931H110.297ZM110.297 16.6036C110.297 16.7873 110.251 16.8707 110.212 16.9136L110.943 17.5785C111.19 17.3074 111.286 16.9625 111.286 16.6036H110.297ZM110.228 16.8966C110.196 16.9284 110.139 16.966 109.999 16.966V17.9545C110.345 17.9545 110.673 17.8493 110.927 17.5956L110.228 16.8966ZM109.999 16.966C109.859 16.966 109.802 16.9284 109.771 16.8966L109.072 17.5956C109.325 17.8493 109.654 17.9545 109.999 17.9545V16.966ZM109.804 16.9331C109.768 16.8902 109.723 16.7993 109.723 16.6036H108.734C108.734 16.9504 108.817 17.2879 109.039 17.5591L109.804 16.9331ZM109.723 16.6036V10.9284H108.734V16.6036H109.723ZM109.723 10.9284C109.723 9.89594 109.538 9.02965 109.099 8.39778L108.287 8.96157C108.562 9.35767 108.734 9.9905 108.734 10.9284H109.723ZM109.108 8.41073C108.672 7.73856 108.021 7.39307 107.215 7.39307V8.3815C107.694 8.3815 108.029 8.56427 108.278 8.94862L109.108 8.41073ZM107.215 7.39307C106.503 7.39307 105.853 7.59394 105.281 7.99751L105.851 8.80503C106.25 8.52328 106.7 8.3815 107.215 8.3815V7.39307ZM105.289 7.99192C104.724 8.37401 104.285 8.90095 103.966 9.55522L104.854 9.98857C105.106 9.47209 105.437 9.08528 105.843 8.81062L105.289 7.99192ZM103.961 9.56409C103.656 10.2237 103.509 10.9602 103.509 11.7636H104.497C104.497 11.0821 104.621 10.4908 104.858 9.97969L103.961 9.56409ZM103.509 11.7636V16.6036H104.497V11.7636H103.509ZM103.509 16.6036C103.509 16.7649 103.466 16.8445 103.423 16.8922L104.154 17.5571C104.396 17.2908 104.497 16.9563 104.497 16.6036H103.509ZM103.406 16.9117C103.396 16.9245 103.362 16.966 103.21 16.966V17.9545C103.573 17.9545 103.925 17.839 104.171 17.5376L103.406 16.9117ZM120.305 23.4139L119.937 23.7445L119.939 23.7464L120.305 23.4139ZM120.305 6.77365L119.939 6.4412L119.937 6.44303L120.305 6.77365ZM121.461 6.77365L121.079 7.0866L121.087 7.09657L121.095 7.10609L121.461 6.77365ZM121.675 8.76534H121.181V10.2634L122.072 9.05942L121.675 8.76534ZM130.499 7.97295L130.154 8.32752L130.157 8.32998L130.499 7.97295ZM131.312 14.8689L131.745 15.1077L131.747 15.1045L131.312 14.8689ZM129.342 16.7964L129.572 17.2339L129.575 17.2324L129.342 16.7964ZM123.753 16.9463L123.538 17.3918L123.549 17.3965L123.753 16.9463ZM121.697 15.2758L122.077 14.9601L121.202 13.9068V15.2758H121.697ZM121.482 23.4139L121.117 23.0815L121.117 23.0815L121.482 23.4139ZM129.299 14.9974L128.947 14.6513L128.947 14.6514L129.299 14.9974ZM129.321 8.91525L128.978 9.27179L128.982 9.27514L129.321 8.91525ZM122.896 8.9795L123.222 9.35105L123.225 9.34781L122.896 8.9795ZM122.232 14.1194L121.804 14.3667L121.811 14.3778L122.232 14.1194ZM123.838 15.5971L123.61 16.0355L123.621 16.0409L123.838 15.5971ZM120.883 23.1553C120.757 23.1553 120.706 23.1202 120.67 23.0815L119.939 23.7464C120.189 24.0217 120.523 24.1437 120.883 24.1437V23.1553ZM120.672 23.0833C120.653 23.0627 120.606 22.9922 120.606 22.7928H119.618C119.618 23.1361 119.699 23.4796 119.937 23.7445L120.672 23.0833ZM120.606 22.7928V7.39471H119.618V22.7928H120.606ZM120.606 7.39471C120.606 7.1954 120.653 7.12488 120.672 7.10426L119.937 6.44303C119.699 6.70796 119.618 7.05148 119.618 7.39471H120.606ZM120.67 7.10609C120.706 7.06733 120.757 7.03229 120.883 7.03229V6.04385C120.523 6.04385 120.189 6.16586 119.939 6.4412L120.67 7.10609ZM120.883 7.03229C121.035 7.03229 121.068 7.07383 121.079 7.0866L121.844 6.46069C121.597 6.15936 121.245 6.04385 120.883 6.04385V7.03229ZM121.095 7.10609C121.139 7.15383 121.181 7.2334 121.181 7.39471H122.169C122.169 7.04204 122.069 6.70756 121.827 6.4412L121.095 7.10609ZM121.181 7.39471V8.76534H122.169V7.39471H121.181ZM122.072 9.05942C123.066 7.71695 124.494 7.03229 126.43 7.03229V6.04385C124.224 6.04385 122.483 6.84403 121.278 8.47126L122.072 9.05942ZM126.43 7.03229C128.063 7.03229 129.284 7.48212 130.154 8.32751L130.843 7.61838C129.743 6.55061 128.251 6.04385 126.43 6.04385V7.03229ZM130.157 8.32998C131.039 9.17439 131.504 10.3478 131.504 11.9135H132.492C132.492 10.1383 131.957 8.68466 130.84 7.61591L130.157 8.32998ZM131.504 11.9135C131.504 12.9737 131.289 13.8751 130.878 14.6333L131.747 15.1045C132.249 14.178 132.492 13.1091 132.492 11.9135H131.504ZM130.88 14.6302C130.47 15.3722 129.884 15.9472 129.11 16.3603L129.575 17.2324C130.513 16.7318 131.241 16.0218 131.745 15.1077L130.88 14.6302ZM129.112 16.3589C128.354 16.7574 127.443 16.966 126.365 16.966V17.9545C127.572 17.9545 128.646 17.7205 129.572 17.2339L129.112 16.3589ZM126.365 16.966C125.438 16.966 124.638 16.8048 123.956 16.4961L123.549 17.3965C124.38 17.773 125.323 17.9545 126.365 17.9545V16.966ZM123.967 16.5009C123.3 16.1801 122.668 15.6726 122.077 14.9601L121.316 15.5915C121.981 16.3924 122.721 16.9986 123.538 17.3917L123.967 16.5009ZM121.202 15.2758V22.7928H122.191V15.2758H121.202ZM121.202 22.7928C121.202 22.9542 121.16 23.0337 121.117 23.0815L121.848 23.7464C122.09 23.48 122.191 23.1455 122.191 22.7928H121.202ZM121.117 23.0815C121.087 23.1141 121.032 23.1553 120.883 23.1553V24.1437C121.247 24.1437 121.592 24.0278 121.848 23.7464L121.117 23.0815ZM126.258 16.6053C127.655 16.6053 128.809 16.2031 129.652 15.3435L128.947 14.6514C128.333 15.2766 127.46 15.6168 126.258 15.6168V16.6053ZM129.652 15.3435C130.507 14.4725 130.907 13.2935 130.907 11.8707H129.919C129.919 13.1034 129.577 14.0089 128.947 14.6513L129.652 15.3435ZM130.907 11.8707C130.907 10.4905 130.513 9.3589 129.659 8.55536L128.982 9.27514C129.585 9.84223 129.919 10.6809 129.919 11.8707H130.907ZM129.663 8.55873C128.828 7.75745 127.66 7.39307 126.237 7.39307V8.3815C127.498 8.3815 128.385 8.70242 128.979 9.27177L129.663 8.55873ZM126.237 7.39307C124.739 7.39307 123.495 7.78041 122.566 8.61119L123.225 9.34781C123.925 8.7223 124.908 8.3815 126.237 8.3815V7.39307ZM122.57 8.60797C121.633 9.42999 121.181 10.5523 121.181 11.9135H122.169C122.169 10.7904 122.531 9.95674 123.222 9.35103L122.57 8.60797ZM121.181 11.9135C121.181 12.8181 121.385 13.6405 121.804 14.3666L122.66 13.8721C122.337 13.3132 122.169 12.6651 122.169 11.9135H121.181ZM121.811 14.3778C122.245 15.0861 122.849 15.6392 123.61 16.0354L124.067 15.1587C123.457 14.8411 122.99 14.409 122.653 13.8609L121.811 14.3778ZM123.621 16.0409C124.399 16.422 125.282 16.6053 126.258 16.6053V15.6168C125.407 15.6168 124.677 15.4575 124.056 15.1532L123.621 16.0409ZM135.36 16.0254L135.699 15.6659L135.699 15.6659L135.36 16.0254ZM135.381 7.99436L135.718 8.35617L135.721 8.35366L135.381 7.99436ZM142.534 7.07347L142.344 7.52972L142.351 7.53234L142.534 7.07347ZM144.526 8.55118L144.127 8.84353L144.135 8.85337L144.526 8.55118ZM144.74 12.1062L144.398 11.7493L144.391 11.7568L144.74 12.1062ZM135.446 12.5988V12.1046H134.951V12.5988H135.446ZM136.559 15.1902L136.24 15.5675L136.244 15.571L136.559 15.1902ZM141.763 15.8541L141.902 16.3285L141.913 16.3252L141.763 15.8541ZM143.412 14.976L143.716 15.3661L143.723 15.3602L143.731 15.354L143.412 14.976ZM144.44 14.8047L144.091 15.1541L144.104 15.1675L144.119 15.1799L144.44 14.8047ZM144.483 15.8112L144.824 16.1694L144.833 16.1607L144.483 15.8112ZM142.427 17.0533L142.589 17.5205L142.589 17.5205L142.427 17.0533ZM143.477 11.1854L143.78 11.5755L143.793 11.5655L143.805 11.5547L143.477 11.1854ZM143.155 9.19366L142.775 9.50876L142.775 9.50876L143.155 9.19366ZM141.699 8.22994L141.527 8.69314L141.53 8.6944L141.699 8.22994ZM136.581 8.82959L136.899 9.20743L136.9 9.20687L136.581 8.82959ZM135.488 11.3353H134.994V11.8295H135.488V11.3353ZM139.665 16.966C137.892 16.966 136.594 16.5105 135.699 15.6659L135.021 16.3848C136.153 17.4535 137.725 17.9545 139.665 17.9545V16.966ZM135.699 15.6659C134.809 14.8257 134.334 13.614 134.334 11.9563H133.345C133.345 13.8109 133.884 15.3119 135.021 16.3848L135.699 15.6659ZM134.334 11.9563C134.334 10.3792 134.81 9.20078 135.718 8.35616L135.045 7.63256C133.896 8.70111 133.345 10.164 133.345 11.9563H134.334ZM135.721 8.35366C136.635 7.49056 137.907 7.03229 139.6 7.03229V6.04385C137.724 6.04385 136.184 6.55644 135.042 7.63506L135.721 8.35366ZM139.6 7.03229C140.646 7.03229 141.558 7.20202 142.344 7.52967L142.724 6.61727C141.797 6.23106 140.753 6.04385 139.6 6.04385V7.03229ZM142.351 7.53234C143.135 7.84619 143.719 8.28667 144.127 8.84344L144.925 8.25892C144.391 7.53073 143.646 6.98606 142.718 6.6146L142.351 7.53234ZM144.135 8.85337C144.552 9.39271 144.76 10.0068 144.76 10.7142H145.748C145.748 9.79398 145.471 8.96605 144.917 8.24899L144.135 8.85337ZM144.76 10.7142C144.76 11.2167 144.619 11.5374 144.398 11.7494L145.082 12.4631C145.546 12.0183 145.748 11.411 145.748 10.7142H144.76ZM144.391 11.7568C144.178 11.9698 143.86 12.1046 143.37 12.1046V13.093C144.05 13.093 144.646 12.8994 145.09 12.4557L144.391 11.7568ZM143.37 12.1046H135.446V13.093H143.37V12.1046ZM134.951 12.5988C134.951 13.8223 135.371 14.8324 136.24 15.5674L136.878 14.8129C136.262 14.2915 135.94 13.574 135.94 12.5988H134.951ZM136.244 15.571C137.104 16.2817 138.265 16.6053 139.665 16.6053V15.6168C138.409 15.6168 137.5 15.3265 136.874 14.8093L136.244 15.571ZM139.665 16.6053C140.511 16.6053 141.26 16.5165 141.902 16.3284L141.624 15.3797C141.096 15.5343 140.446 15.6168 139.665 15.6168V16.6053ZM141.913 16.3252C142.557 16.1208 143.158 15.7996 143.716 15.3661L143.109 14.5859C142.638 14.9519 142.14 15.2161 141.614 15.3829L141.913 16.3252ZM143.731 15.354C143.849 15.2544 143.941 15.1929 144.008 15.1582C144.079 15.122 144.097 15.1276 144.076 15.1276V14.1391C143.715 14.1391 143.375 14.3614 143.094 14.598L143.731 15.354ZM144.076 15.1276C144.071 15.1276 144.066 15.127 144.061 15.1258C144.056 15.1247 144.053 15.1235 144.053 15.1233C144.053 15.1232 144.066 15.1294 144.091 15.1541L144.79 14.4552C144.608 14.2734 144.368 14.1391 144.076 14.1391V15.1276ZM144.119 15.1799C144.187 15.2381 144.219 15.2821 144.234 15.3085C144.241 15.3211 144.244 15.3292 144.245 15.333C144.246 15.3366 144.246 15.3386 144.246 15.3401H145.234C145.234 14.9576 145.024 14.654 144.762 14.4294L144.119 15.1799ZM144.246 15.3401C144.246 15.3104 144.255 15.3043 144.242 15.3283C144.228 15.3536 144.197 15.3985 144.134 15.4618L144.833 16.1607C145.036 15.9573 145.234 15.6801 145.234 15.3401H144.246ZM144.143 15.4531C143.61 15.9598 142.986 16.3374 142.266 16.5862L142.589 17.5205C143.439 17.2268 144.186 16.7763 144.824 16.1693L144.143 15.4531ZM142.266 16.5862C141.544 16.8354 140.68 16.966 139.665 16.966V17.9545C140.762 17.9545 141.739 17.8138 142.589 17.5205L142.266 16.5862ZM142.898 11.8295C143.206 11.8295 143.527 11.772 143.78 11.5755L143.173 10.7952C143.169 10.7986 143.105 10.841 142.898 10.841V11.8295ZM143.805 11.5547C144.091 11.3001 144.164 10.9224 144.164 10.5857H143.175C143.175 10.6943 143.163 10.7615 143.151 10.7985C143.14 10.8329 143.133 10.8293 143.148 10.816L143.805 11.5547ZM144.164 10.5857C144.164 9.95112 143.948 9.37685 143.536 8.87856L142.775 9.50876C143.048 9.83856 143.175 10.1923 143.175 10.5857H144.164ZM143.536 8.87856C143.125 8.38209 142.559 8.01671 141.868 7.76548L141.53 8.6944C142.096 8.90004 142.5 9.17714 142.775 9.50876L143.536 8.87856ZM141.871 7.76675C141.193 7.51416 140.433 7.39307 139.6 7.39307V8.3815C140.338 8.3815 140.978 8.48884 141.527 8.69313L141.871 7.76675ZM139.6 7.39307C138.249 7.39307 137.117 7.72802 136.261 8.45231L136.9 9.20687C137.529 8.67475 138.41 8.3815 139.6 8.3815V7.39307ZM136.262 8.45175C135.41 9.17057 134.994 10.151 134.994 11.3353H135.983C135.983 10.4065 136.295 9.71646 136.899 9.20743L136.262 8.45175ZM135.488 11.8295H142.898V10.841H135.488V11.8295ZM147.891 17.2461L147.509 17.5591L147.524 17.5781L147.542 17.5956L147.891 17.2461ZM147.891 6.77365L148.259 7.10426L148.266 7.09561L148.274 7.0866L147.891 6.77365ZM149.026 6.77365L148.644 7.0866L148.659 7.10568L148.677 7.12311L149.026 6.77365ZM149.241 8.67968H148.746V10.1536L149.635 8.97761L149.241 8.67968ZM154.445 6.94497L154.132 7.32748L154.143 7.33639L154.154 7.34467L154.445 6.94497ZM154.445 7.93011L154.154 7.53042L154.154 7.53042L154.445 7.93011ZM150.311 9.15083L150.657 9.50388L150.657 9.5038L150.311 9.15083ZM149.048 17.2247L148.682 16.8922L148.673 16.9018L148.665 16.9117L149.048 17.2247ZM148.47 16.966C148.33 16.966 148.273 16.9284 148.241 16.8966L147.542 17.5956C147.796 17.8493 148.124 17.9545 148.47 17.9545V16.966ZM148.274 16.9331C148.239 16.8902 148.193 16.7993 148.193 16.6036H147.204C147.204 16.9504 147.287 17.2879 147.509 17.5591L148.274 16.9331ZM148.193 16.6036V7.39471H147.204V16.6036H148.193ZM148.193 7.39471C148.193 7.1954 148.24 7.12488 148.259 7.10426L147.524 6.44303C147.286 6.70796 147.204 7.05148 147.204 7.39471H148.193ZM148.274 7.0866C148.284 7.07383 148.318 7.03229 148.47 7.03229V6.04385C148.107 6.04385 147.755 6.15936 147.509 6.46069L148.274 7.0866ZM148.47 7.03229C148.596 7.03229 148.628 7.06707 148.644 7.0866L149.409 6.46069C149.168 6.16612 148.828 6.04385 148.47 6.04385V7.03229ZM148.677 7.12311C148.699 7.14487 148.746 7.20813 148.746 7.39471H149.735C149.735 7.03876 149.64 6.68797 149.376 6.42418L148.677 7.12311ZM148.746 7.39471V8.67968H149.735V7.39471H148.746ZM149.635 8.97761C150.506 7.82517 151.697 7.24645 153.267 7.24645V6.25801C151.41 6.25801 149.917 6.96426 148.846 8.38175L149.635 8.97761ZM153.267 7.24645H153.802V6.25801H153.267V7.24645ZM153.802 7.24645C153.998 7.24645 154.089 7.29235 154.132 7.32748L154.758 6.56247C154.486 6.34061 154.149 6.25801 153.802 6.25801V7.24645ZM154.154 7.34467C154.171 7.35681 154.174 7.36395 154.175 7.36701C154.178 7.37177 154.186 7.39132 154.186 7.43754H155.174C155.174 7.08412 155.035 6.76307 154.735 6.54528L154.154 7.34467ZM154.186 7.43754C154.186 7.48377 154.178 7.50332 154.175 7.50807C154.174 7.51114 154.171 7.51828 154.154 7.53042L154.735 8.3298C155.035 8.11202 155.174 7.79097 155.174 7.43754H154.186ZM154.154 7.53042C154.109 7.56311 154.009 7.60723 153.802 7.60723V8.59566C154.138 8.59566 154.466 8.52556 154.735 8.3298L154.154 7.53042ZM153.802 7.60723H153.203V8.59566H153.802V7.60723ZM153.203 7.60723C151.889 7.60723 150.791 7.98902 149.965 8.79785L150.657 9.5038C151.26 8.91345 152.089 8.59566 153.203 8.59566V7.60723ZM149.965 8.79778C149.152 9.59507 148.768 10.6683 148.768 11.9563H149.756C149.756 10.8743 150.072 10.0772 150.657 9.50388L149.965 8.79778ZM148.768 11.9563V16.6036H149.756V11.9563H148.768ZM148.768 16.6036C148.768 16.7649 148.725 16.8445 148.682 16.8922L149.413 17.5571C149.656 17.2908 149.756 16.9563 149.756 16.6036H148.768ZM148.665 16.9117C148.655 16.9245 148.621 16.966 148.47 16.966V17.9545C148.832 17.9545 149.184 17.839 149.43 17.5376L148.665 16.9117Z" fill="black"/>
</svg>
