<svg width="55" height="40" viewBox="0 0 55 40" fill="none" xmlns="http://www.w3.org/2000/svg">
<path d="M46.8258 25.4569C46.5678 23.8505 45.1843 22.5982 43.4031 22.2249C36.48 20.7703 34.7445 17.1964 34.4517 13.2324C33.2239 13.0277 31.0398 12.8061 27.3324 12.8061C23.625 12.8061 21.4408 13.0277 20.2131 13.2324C19.9203 17.1964 18.1848 20.7703 11.2616 22.2249C9.48047 22.6006 8.09691 23.8505 7.83901 25.4569L6.50381 33.7462C6.03367 36.6651 8.42467 39.2973 11.7506 39.2973H42.9142C46.2374 39.2973 48.6311 36.6651 48.161 33.7462L46.8258 25.4569ZM27.3324 33.2573C23.5847 33.2573 20.5462 30.56 20.5462 27.2366C20.5462 23.9131 23.5847 21.2159 27.3324 21.2159C31.0801 21.2159 34.1185 23.9131 34.1185 27.2366C34.1185 30.56 31.0774 33.2573 27.3324 33.2573ZM54.0632 10.3978C53.9988 6.78538 43.7416 0.767057 27.3324 0.764648C10.9204 0.767057 0.663318 6.78538 0.601528 10.3978C0.539738 14.0103 0.657945 18.7112 7.41185 17.9285C15.3129 17.011 14.8266 14.5377 14.8266 11.0023C14.8266 8.53621 21.2528 7.94136 27.3324 7.94136C33.412 7.94136 39.8354 8.53621 39.8381 11.0023C39.8381 14.5377 39.3519 17.011 47.2529 17.9285C54.0041 18.7112 54.125 14.0103 54.0632 10.3978Z" fill="white"/>
</svg>
