<svg width="53" height="38" viewBox="0 0 53 38" fill="none" xmlns="http://www.w3.org/2000/svg">
<path d="M47.618 9.42396L26.8106 20.939L6.00329 9.42396V4.81794L26.8106 16.333L47.618 4.81794V9.42396ZM47.618 0.211914H6.00329C3.11627 0.211914 0.801453 2.26159 0.801453 4.81794V32.4541C0.801453 33.6757 1.3495 34.8472 2.32503 35.711C3.30057 36.5748 4.62368 37.0601 6.00329 37.0601H47.618C48.9976 37.0601 50.3207 36.5748 51.2962 35.711C52.2718 34.8472 52.8198 33.6757 52.8198 32.4541V4.81794C52.8198 3.59634 52.2718 2.42478 51.2962 1.56099C50.3207 0.69719 48.9976 0.211914 47.618 0.211914V0.211914Z" fill="white"/>
</svg>
