<svg width="40" height="40" viewBox="0 0 40 40" fill="none" xmlns="http://www.w3.org/2000/svg">
<path d="M20.2614 15.04C19.3002 15.04 18.3606 15.3309 17.5613 15.8759C16.7621 16.4209 16.1392 17.1956 15.7713 18.1019C15.4035 19.0082 15.3072 20.0055 15.4948 20.9677C15.6823 21.9298 16.1452 22.8136 16.8249 23.5073C17.5045 24.2009 18.3705 24.6733 19.3133 24.8647C20.256 25.0561 21.2332 24.9579 22.1213 24.5824C23.0093 24.207 23.7684 23.5713 24.3024 22.7556C24.8364 21.94 25.1215 20.981 25.1215 20C25.1215 19.3486 24.9958 18.7037 24.7515 18.1019C24.5073 17.5001 24.1493 16.9533 23.698 16.4928C23.2467 16.0322 22.7109 15.6668 22.1213 15.4176C21.5316 15.1683 20.8997 15.04 20.2614 15.04V15.04ZM39.7212 10.14C39.7109 8.59552 39.4322 7.06514 38.8981 5.62C38.5048 4.56252 37.8962 3.60219 37.1125 2.80237C36.3288 2.00255 35.3878 1.38144 34.3516 0.98C32.9356 0.434928 31.4361 0.150522 29.9227 0.14C27.3947 -1.3411e-07 26.65 0 20.2614 0C13.8728 0 13.1281 -1.3411e-07 10.6001 0.14C9.08678 0.150522 7.58725 0.434928 6.17123 0.98C5.13506 1.38144 4.19408 2.00255 3.41038 2.80237C2.62669 3.60219 2.01808 4.56252 1.62474 5.62C1.09065 7.06514 0.811978 8.59552 0.801668 10.14C0.66449 12.72 0.66449 13.48 0.66449 20C0.66449 26.52 0.66449 27.28 0.801668 29.86C0.822762 31.4099 1.10106 32.945 1.62474 34.4C2.01634 35.4527 2.62444 36.4074 3.40806 37.2C4.1884 38.0046 5.13139 38.6257 6.17123 39.02C7.58725 39.5651 9.08678 39.8495 10.6001 39.86C13.1281 40 13.8728 40 20.2614 40C26.65 40 27.3947 40 29.9227 39.86C31.4361 39.8495 32.9356 39.5651 34.3516 39.02C35.3915 38.6257 36.3344 38.0046 37.1148 37.2C37.8984 36.4074 38.5065 35.4527 38.8981 34.4C39.4317 32.9478 39.7103 31.4109 39.7212 29.86C39.8584 27.28 39.8584 26.52 39.8584 20C39.8584 13.48 39.8584 12.72 39.7212 10.14V10.14ZM34.7436 26.14C34.6807 27.3742 34.4226 28.5899 33.9793 29.74C33.5988 30.6994 33.0333 31.5709 32.3162 32.3027C31.5991 33.0345 30.7452 33.6117 29.8051 34C28.6676 34.4272 27.4697 34.6636 26.2581 34.7H14.2648C13.0531 34.6636 11.8553 34.4272 10.7177 34C9.74591 33.6314 8.86831 33.0435 8.15052 32.28C7.44046 31.5625 6.89209 30.6957 6.54357 29.74C6.12333 28.5802 5.89806 27.3564 5.87727 26.12V20V13.88C5.89806 12.6437 6.12333 11.4198 6.54357 10.26C6.9047 9.26821 7.48084 8.37256 8.22891 7.64C8.93505 6.91925 9.78346 6.36019 10.7177 6C11.8553 5.57281 13.0531 5.33642 14.2648 5.3H26.2581C27.4697 5.33642 28.6676 5.57281 29.8051 6C30.7769 6.36856 31.6545 6.95655 32.3723 7.72C33.0824 8.4375 33.6308 9.30427 33.9793 10.26C34.3979 11.421 34.6295 12.6435 34.6652 13.88V20C34.6652 24.12 34.8023 24.54 34.7436 26.12V26.14ZM31.608 11.26C31.3747 10.614 31.0068 10.0273 30.5298 9.54043C30.0528 9.05357 29.4779 8.67813 28.8449 8.44C27.9757 8.13252 27.0603 7.98358 26.1405 8H14.3823C13.4579 8.00922 12.5423 8.18527 11.678 8.52C11.0546 8.74731 10.4859 9.10743 10.0095 9.5764C9.53303 10.0454 9.15988 10.6125 8.9148 11.24C8.63021 12.1307 8.49117 13.0632 8.50326 14V26C8.52269 26.9424 8.69486 27.875 9.01278 28.76C9.24611 29.406 9.61399 29.9927 10.091 30.4796C10.5681 30.9664 11.1429 31.3419 11.776 31.58C12.6121 31.8938 13.492 32.0694 14.3823 32.1H26.1405C27.065 32.0908 27.9805 31.9147 28.8449 31.58C29.4779 31.3419 30.0528 30.9664 30.5298 30.4796C31.0068 29.9927 31.3747 29.406 31.608 28.76C31.936 27.8779 32.1085 26.9435 32.1176 26V20V14C32.1181 13.0556 31.9453 12.1194 31.608 11.24V11.26ZM20.2614 27.64C19.2793 27.64 18.3068 27.4423 17.3996 27.0581C16.4925 26.6739 15.6685 26.1108 14.9749 25.4011C14.2813 24.6914 13.7318 23.849 13.3577 22.9222C12.9836 21.9954 12.7924 21.0024 12.795 20C12.795 18.4881 13.2345 17.0102 14.058 15.7534C14.8814 14.4966 16.0518 13.5173 17.4208 12.9397C18.7898 12.362 20.296 12.2119 21.7487 12.5083C23.2014 12.8047 24.5352 13.5343 25.5814 14.6048C26.6275 15.6753 27.339 17.0385 27.6256 18.5218C27.9122 20.0051 27.7612 21.5419 27.1916 22.9376C26.622 24.3333 25.6594 25.5251 24.4258 26.3622C23.1921 27.1993 21.7428 27.644 20.2614 27.64V27.64ZM28.1002 13.86C27.667 13.8132 27.2661 13.6044 26.9747 13.2739C26.6833 12.9434 26.5221 12.5146 26.5221 12.07C26.5221 11.6254 26.6833 11.1966 26.9747 10.8661C27.2661 10.5356 27.667 10.3268 28.1002 10.28C28.5334 10.3268 28.9343 10.5356 29.2257 10.8661C29.517 11.1966 29.6783 11.6254 29.6783 12.07C29.6783 12.5146 29.517 12.9434 29.2257 13.2739C28.9343 13.6044 28.5334 13.8132 28.1002 13.86Z" fill="white"/>
</svg>
